# xmcd
#
# Track frame offsets:
#	150
#	15181
#	23859
#	36307
#	50349
#	62759
#	80014
#	88671
#	98820
#	113379
#
# Disc length: 1779 seconds
#
# Revision: 1
# Processed by: cddbd v1.5.2PL0 Copyright (c) Steve Scherf et al.
# Submitted via: audiograbber 1.83.01
#
DISCID=6e06f10a
DTITLE=Various Artist - Pacific Steel Company
DYEAR=1978
DGENRE=Country
TTITLE0=Jay Dee Maness - Fat'n Sassy
TTITLE1=Sneaky Pete Kleinow - Spittin' Image
TTITLE2=Al Perkins - Atrium
TTITLE3=Tom Brumley - Selah
TTITLE4=Junior (Red) Rhodes - Sheffield Steel
TTITLE5=Al Perkins - Salty Psaltery
TTITLE6=Jay Dee Maness - Jay Dee's Boogie
TTITLE7=Tom Brumley - Arrowhead
TTITLE8=Sneaky Pete Kleinow - Tonight Is Forever
TTITLE9=Junior (Red) Rhodes - Rio
EXTD=
EXTT0=
EXTT1=
EXTT2=
EXTT3=
EXTT4=
EXTT5=
EXTT6=
EXTT7=
EXTT8=
EXTT9=
PLAYORDER=
